<?xml version="1.0" encoding="UTF-8" standalone="no"?>
<!DOCTYPE svg PUBLIC "-//W3C//DTD SVG 1.1//EN" "http://www.w3.org/Graphics/SVG/1.1/DTD/svg11.dtd">
<svg width="100%" height="100%" viewBox="0 0 2048 1536" version="1.1" xmlns="http://www.w3.org/2000/svg" xmlns:xlink="http://www.w3.org/1999/xlink" xml:space="preserve" xmlns:serif="http://www.serif.com/" style="fill-rule:evenodd;clip-rule:evenodd;stroke-linecap:round;stroke-linejoin:round;stroke-miterlimit:1.5;">
    <g transform="matrix(1,0,0,1,95.8208,241.093)">
        <path d="M708.861,173.668C708.861,155.223 693.908,140.27 675.463,140.27C675.463,140.27 675.462,140.27 675.461,140.27C657.016,140.27 642.063,155.223 642.063,173.668C642.063,232.048 642.063,346.507 642.063,346.507L708.861,346.507L708.861,173.668Z" style="fill:rgb(51,51,51);stroke:rgb(162,162,162);stroke-width:15.24px;"/>
    </g>
    <g transform="matrix(1,0,0,1,601.728,241.673)">
        <path d="M708.861,173.668C708.861,155.223 693.908,140.27 675.463,140.27C675.463,140.27 675.462,140.27 675.461,140.27C657.016,140.27 642.063,155.223 642.063,173.668C642.063,232.048 642.063,346.507 642.063,346.507L708.861,346.507L708.861,173.668Z" style="fill:rgb(51,51,51);stroke:rgb(162,162,162);stroke-width:15.24px;"/>
    </g>
    <g transform="matrix(1.08223,0,0,1.161,-25.8547,99.2448)">
        <path d="M1567.42,438.311C1569.67,421.63 1564.12,404.854 1552.18,392.248C1540.25,379.643 1523.08,372.422 1505.05,372.422L447.235,372.422C429.407,372.422 412.418,379.478 400.496,391.833C388.574,404.189 382.841,420.682 384.724,437.207C396.754,542.812 420.357,749.991 431.403,846.946C434.795,876.729 461.736,899.333 493.866,899.356C679.01,899.487 1266.07,899.903 1449.78,900.033C1481.49,900.055 1508.25,878.057 1512.2,848.728C1525.16,752.414 1553.1,544.777 1567.42,438.311Z" style="fill:rgb(51,51,51);stroke:rgb(162,162,162);stroke-width:17.39px;"/>
    </g>
    <g transform="matrix(1,0,0,1,55.4538,202.701)">
        <path d="M1569.48,423.021C1571.2,410.257 1567.32,397.373 1558.84,387.678C1550.36,377.983 1538.11,372.422 1525.23,372.422C1328.67,372.422 622.124,372.422 427.364,372.422C414.643,372.422 402.526,377.848 394.056,387.338C385.585,396.829 381.565,409.482 383.005,422.121C394.86,526.187 422.088,765.184 432.861,859.752C435.43,882.296 454.499,899.328 477.188,899.344C645.701,899.463 1299.16,899.926 1466.22,900.044C1488.59,900.06 1507.52,883.521 1510.5,861.352C1523.13,767.522 1555.35,528.005 1569.48,423.021Z" style="fill:rgb(107,107,107);stroke:rgb(74,74,74);stroke-width:15.24px;"/>
    </g>
    <g transform="matrix(1,0,0,1.42099,254.323,-935.467)">
        <path d="M606.953,1204.87C606.953,1149.91 543.649,1105.37 465.56,1105.37L465.56,1105.37C387.471,1105.37 324.167,1149.91 324.167,1204.87L324.167,1297.3C324.167,1352.25 387.471,1396.8 465.56,1396.8L465.56,1396.8C543.649,1396.8 606.953,1352.25 606.953,1297.3L606.953,1204.87Z" style="fill:rgb(98,199,217);stroke:rgb(91,90,90);stroke-width:12.41px;"/>
    </g>
    <g transform="matrix(1,0,0,1.42099,897.302,-946.931)">
        <path d="M606.953,1204.87C606.953,1149.91 543.649,1105.37 465.56,1105.37L465.56,1105.37C387.471,1105.37 324.167,1149.91 324.167,1204.87L324.167,1297.3C324.167,1352.25 387.471,1396.8 465.56,1396.8L465.56,1396.8C543.649,1396.8 606.953,1352.25 606.953,1297.3L606.953,1204.87Z" style="fill:rgb(98,199,217);stroke:rgb(91,90,90);stroke-width:12.41px;"/>
    </g>
    <g transform="matrix(0.975866,-0.00068206,-0.00068206,0.999981,87.3429,192.49)">
        <path d="M879.819,842.646C879.819,842.646 880.17,842.836 880.83,843.194C941.628,876.222 1015.44,876.782 1076.66,844.68C1079.1,843.402 1080.48,842.678 1080.48,842.678" style="fill:none;stroke:rgb(91,90,90);stroke-width:15.44px;"/>
    </g>
</svg>
