<?xml version="1.0" encoding="UTF-8" standalone="no"?>
<!DOCTYPE svg PUBLIC "-//W3C//DTD SVG 1.1//EN" "http://www.w3.org/Graphics/SVG/1.1/DTD/svg11.dtd">
<svg width="100%" height="100%" viewBox="0 0 2048 1536" version="1.1" xmlns="http://www.w3.org/2000/svg" xmlns:xlink="http://www.w3.org/1999/xlink" xml:space="preserve" xmlns:serif="http://www.serif.com/" style="fill-rule:evenodd;clip-rule:evenodd;stroke-linecap:round;stroke-linejoin:round;stroke-miterlimit:1.5;">
    <g transform="matrix(1.52327,0,0,1.4892,-545.975,-433.793)">
        <g transform="matrix(1,0,0,1,95.8208,241.093)">
            <path d="M708.861,174.432C708.861,165.372 705.343,156.682 699.079,150.276C692.816,143.869 684.321,140.27 675.463,140.27L675.461,140.27C666.603,140.27 658.108,143.869 651.845,150.276C645.582,156.682 642.063,165.372 642.063,174.432L642.063,346.507L708.861,346.507L708.861,174.432Z" style="fill:rgb(51,51,51);stroke:rgb(162,162,162);stroke-width:15.24px;"/>
        </g>
        <g transform="matrix(1,0,0,1,601.728,241.673)">
            <path d="M708.861,174.432C708.861,165.372 705.343,156.682 699.079,150.276C692.816,143.869 684.321,140.27 675.463,140.27L675.461,140.27C666.603,140.27 658.108,143.869 651.845,150.276C645.582,156.682 642.063,165.372 642.063,174.432L642.063,346.507L708.861,346.507L708.861,174.432Z" style="fill:rgb(51,51,51);stroke:rgb(162,162,162);stroke-width:15.24px;"/>
        </g>
        <g>
            <g transform="matrix(1.08223,0,0,1.161,-25.8547,99.2448)">
                <path d="M1561.15,484.926C1564.98,456.476 1555.78,427.831 1535.91,406.297C1516.04,384.763 1487.41,372.422 1457.33,372.422L494.004,372.422C464.275,372.422 435.948,384.475 416.093,405.573C396.239,426.671 386.731,454.824 389.941,483.004C401.025,580.302 416.956,720.134 427.234,810.355C433.001,860.978 477.813,899.344 531.219,899.382C734.156,899.526 1211.7,899.864 1413.12,900.007C1465.81,900.044 1510.32,862.732 1517.02,812.902C1529.09,723.164 1547.96,582.979 1561.15,484.926Z" style="fill:rgb(51,51,51);stroke:rgb(162,162,162);stroke-width:17.39px;"/>
            </g>
            <g transform="matrix(1.00927,0,0,0.981387,46.9005,213.009)">
                <path d="M1563.98,463.917C1567.07,440.901 1560.53,417.603 1546.04,400.052C1531.55,382.501 1510.54,372.422 1488.44,372.422L463.318,372.422C441.504,372.422 420.734,382.245 406.256,399.409C391.778,416.573 384.978,439.436 387.573,462.22C399.373,565.801 418.531,733.958 429.32,828.663C433.913,868.981 466.412,899.336 505.013,899.364C697.725,899.5 1247.97,899.89 1439,900.025C1477.02,900.052 1509.25,870.623 1514.58,831.022C1527.24,736.978 1549.92,568.397 1563.98,463.917Z" style="fill:rgb(107,107,107);stroke:rgb(74,74,74);stroke-width:15.24px;"/>
            </g>
            <g>
                <g transform="matrix(1,0,0,1.42099,917.646,-946.931)">
                    <path d="M606.953,1200.41C606.953,1175.2 593.042,1151.03 568.279,1133.2C543.516,1115.38 509.931,1105.37 474.911,1105.37L456.209,1105.37C421.189,1105.37 387.604,1115.38 362.841,1133.2C338.079,1151.03 324.167,1175.2 324.167,1200.41L324.167,1301.75C324.167,1326.96 338.079,1351.13 362.841,1368.96C387.604,1386.78 421.189,1396.8 456.209,1396.8L474.911,1396.8C509.931,1396.8 543.516,1386.78 568.279,1368.96C593.042,1351.13 606.953,1326.96 606.953,1301.75L606.953,1200.41Z" style="fill:rgb(98,199,217);stroke:rgb(91,90,90);stroke-width:12.41px;"/>
                </g>
                <g transform="matrix(1,0,0,1.42099,234.44,-946.931)">
                    <path d="M606.953,1200.41C606.953,1175.2 593.042,1151.03 568.279,1133.2C543.516,1115.38 509.931,1105.37 474.911,1105.37L456.209,1105.37C421.189,1105.37 387.604,1115.38 362.841,1133.2C338.079,1151.03 324.167,1175.2 324.167,1200.41L324.167,1301.75C324.167,1326.96 338.079,1351.13 362.841,1368.96C387.604,1386.78 421.189,1396.8 456.209,1396.8L474.911,1396.8C509.931,1396.8 543.516,1386.78 568.279,1368.96C593.042,1351.13 606.953,1326.96 606.953,1301.75L606.953,1200.41Z" style="fill:rgb(98,199,217);stroke:rgb(91,90,90);stroke-width:12.41px;"/>
                </g>
            </g>
        </g>
    </g>
    <g transform="matrix(1.48651,-0.00101573,-0.00103896,1.48917,-432.122,-168.502)">
        <path d="M879.819,842.646C879.819,842.646 879.819,842.646 879.819,842.646C941.415,876.106 1015.64,876.674 1077.65,844.161C1079.47,843.208 1080.48,842.678 1080.48,842.678" style="fill:none;stroke:rgb(55,55,55);stroke-width:15.44px;"/>
    </g>
    <g id="Layer1">
    </g>
</svg>
